<?xml version="1.0" encoding="utf-8"?>
<!-- Generator: Adobe Illustrator 19.2.1, SVG Export Plug-In . SVG Version: 6.00 Build 0)  -->
<svg version="1.1" id="Layer_1" xmlns="http://www.w3.org/2000/svg" xmlns:xlink="http://www.w3.org/1999/xlink" x="0px" y="0px"
	 viewBox="0 0 480 192" style="enable-background:new 0 0 480 192;" xml:space="preserve">
<style type="text/css">
	.st0{fill:#FFFFFF;}
</style>
<g id="Layer_1_1_">
</g>
<g>
	<path class="st0" d="M48,13.5c-19.3,0-35,15.7-35,35s15.7,35,35,35s35-15.7,35-35S67.3,13.5,48,13.5z M48,82.5
		c-18.7,0-34-15.2-34-34s15.2-34,34-34s34,15.2,34,34S66.7,82.5,48,82.5z"/>
	<path class="st0" d="M63.4,38.3c0,0,0-0.1-0.1-0.1c0,0,0,0,0-0.1c0,0,0,0,0,0c0,0-0.1-0.1-0.1-0.1c0,0,0,0-0.1,0c0,0-0.1,0-0.1,0
		c0,0-0.1,0-0.1,0c0,0,0,0,0,0H33.1c0,0,0,0,0,0c0,0-0.1,0-0.1,0c0,0-0.1,0-0.1,0c0,0,0,0-0.1,0c0,0-0.1,0-0.1,0.1c0,0,0,0,0,0
		c0,0,0,0,0,0.1c0,0,0,0.1-0.1,0.1c0,0,0,0.1,0,0.1c0,0,0,0,0,0.1v21.4c0,0.3,0.2,0.5,0.5,0.5h29.8c0.3,0,0.5-0.2,0.5-0.5V38.5
		C63.4,38.5,63.4,38.5,63.4,38.3C63.4,38.4,63.4,38.4,63.4,38.3z M61.4,39L48,49.6L34.6,39H61.4z M33.6,59.3V39.6l14.1,11.1
		c0.1,0.1,0.2,0.1,0.3,0.1c0.1,0,0.2,0,0.3-0.1l14.1-11.1v19.8H33.6z"/>
</g>
<g>
	<path class="st0" d="M48,148.7c-0.1,0-0.2,0-0.3-0.1l-14.1-11.1v19.8h28.8v-19.8l-14.1,11.1C48.2,148.7,48.1,148.7,48,148.7z"/>
	<polygon class="st0" points="61.4,137 34.6,137 48,147.6 	"/>
	<path class="st0" d="M48,111.5c-19.3,0-35,15.7-35,35c0,19.3,15.7,35,35,35c19.3,0,35-15.7,35-35C83,127.2,67.3,111.5,48,111.5z
		 M63.4,157.9c0,0.3-0.2,0.5-0.5,0.5H33.1c-0.3,0-0.5-0.2-0.5-0.5v-21.4c0,0,0,0,0-0.1c0,0,0-0.1,0-0.1c0,0,0-0.1,0.1-0.1
		c0,0,0,0,0-0.1c0,0,0,0,0,0c0,0,0.1-0.1,0.1-0.1c0,0,0,0,0.1,0c0,0,0.1,0,0.1,0c0,0,0.1,0,0.1,0c0,0,0,0,0,0h29.8c0,0,0,0,0,0
		c0,0,0.1,0,0.1,0c0,0,0.1,0,0.1,0c0,0,0,0,0.1,0c0,0,0.1,0,0.1,0.1c0,0,0,0,0,0c0,0,0,0,0,0.1c0,0,0,0.1,0.1,0.1c0,0,0,0.1,0,0.1
		c0,0,0,0,0,0.1V157.9z"/>
</g>
</svg>
